<svg width="262" height="86" viewBox="0 0 262 86" fill="none" xmlns="http://www.w3.org/2000/svg">
<path d="M7.326 78V69.348C7.326 64.3353 8.15 60.181 9.798 56.885C11.446 53.5203 13.815 50.7737 16.905 48.645C20.0637 46.4477 23.909 44.6623 28.441 43.289L35.342 41.126C37.8827 40.302 40.0113 39.3063 41.728 38.139C43.4447 36.903 44.7493 35.4267 45.642 33.71C46.6033 31.9933 47.084 30.0363 47.084 27.839V27.427C47.084 23.9937 45.9167 21.2813 43.582 19.29C41.2473 17.23 38.0543 16.2 34.003 16.2C30.0203 16.2 26.793 17.2987 24.321 19.496C21.9177 21.6247 20.716 24.7147 20.716 28.766V30.62H7.532V28.972C7.532 23.7533 8.69933 19.3243 11.034 15.685C13.3687 12.0457 16.5273 9.26466 20.51 7.34199C24.5613 5.41933 29.059 4.458 34.003 4.458C38.947 4.458 43.4103 5.41933 47.393 7.34199C51.3757 9.196 54.5 11.8397 56.766 15.273C59.1007 18.6377 60.268 22.6203 60.268 27.221V28.251C60.268 32.8517 59.3067 36.7657 57.384 39.993C55.53 43.1517 52.9893 45.761 49.762 47.821C46.5347 49.8123 42.861 51.4603 38.741 52.765L32.149 54.825C29.1963 55.7177 26.896 56.7133 25.248 57.812C23.6 58.842 22.4327 60.0093 21.746 61.314C21.128 62.55 20.819 64.0607 20.819 65.846V66.258H59.65V78H7.326ZM97.5283 79.442C89.0136 79.442 82.1813 77.1073 77.0312 72.438C71.8813 67.7 69.3063 60.5587 69.3063 51.014V32.886C69.3063 23.616 71.8813 16.5777 77.0312 11.771C82.1813 6.89566 89.0136 4.458 97.5283 4.458C106.112 4.458 112.944 6.89566 118.025 11.771C123.175 16.5777 125.75 23.616 125.75 32.886V51.014C125.75 60.5587 123.175 67.7 118.025 72.438C112.944 77.1073 106.112 79.442 97.5283 79.442ZM97.5283 67.7C102.678 67.7 106.455 66.2923 108.858 63.477C111.33 60.6617 112.566 56.6447 112.566 51.426V32.268C112.566 26.9807 111.193 22.998 108.446 20.32C105.768 17.5733 102.129 16.2 97.5283 16.2C92.7903 16.2 89.0823 17.6077 86.4043 20.423C83.7949 23.2383 82.4903 27.1867 82.4903 32.268V51.426C82.4903 56.8507 83.7263 60.9363 86.1983 63.683C88.7389 66.361 92.5156 67.7 97.5283 67.7ZM135.271 78V69.348C135.271 64.3353 136.095 60.181 137.743 56.885C139.391 53.5203 141.76 50.7737 144.85 48.645C148.009 46.4477 151.854 44.6623 156.386 43.289L163.287 41.126C165.828 40.302 167.957 39.3063 169.673 38.139C171.39 36.903 172.695 35.4267 173.587 33.71C174.549 31.9933 175.029 30.0363 175.029 27.839V27.427C175.029 23.9937 173.862 21.2813 171.527 19.29C169.193 17.23 166 16.2 161.948 16.2C157.966 16.2 154.738 17.2987 152.266 19.496C149.863 21.6247 148.661 24.7147 148.661 28.766V30.62H135.477V28.972C135.477 23.7533 136.645 19.3243 138.979 15.685C141.314 12.0457 144.473 9.26466 148.455 7.34199C152.507 5.41933 157.004 4.458 161.948 4.458C166.892 4.458 171.356 5.41933 175.338 7.34199C179.321 9.196 182.445 11.8397 184.711 15.273C187.046 18.6377 188.213 22.6203 188.213 27.221V28.251C188.213 32.8517 187.252 36.7657 185.329 39.993C183.475 43.1517 180.935 45.761 177.707 47.821C174.48 49.8123 170.806 51.4603 166.686 52.765L160.094 54.825C157.142 55.7177 154.841 56.7133 153.193 57.812C151.545 58.842 150.378 60.0093 149.691 61.314C149.073 62.55 148.764 64.0607 148.764 65.846V66.258H187.595V78H135.271ZM218.676 78V15.582H216.822L207.14 38.448H193.338L208.067 5.9H231.86V78H218.676Z" fill="white"/>
<circle cx="13.5" cy="22.5" r="10.5" fill="#FF0000"/>
<path d="M9.05526 23.657C8.81995 23.4217 8.6992 23.1461 8.69301 22.8303C8.69301 22.5207 8.81376 22.2451 9.05526 22.0036C9.29058 21.7683 9.56304 21.6506 9.87267 21.6506C10.1885 21.6568 10.464 21.7776 10.6994 22.0129C10.9347 22.2482 11.0523 22.5207 11.0523 22.8303C11.0523 23.1399 10.9316 23.4155 10.6901 23.657C10.4486 23.8985 10.173 24.0192 9.86338 24.0192C9.55995 24.013 9.29058 23.8923 9.05526 23.657ZM12.2691 20.4431C12.0338 20.2078 11.9131 19.9322 11.9069 19.6164C11.9069 19.3068 12.0276 19.0312 12.2691 18.7897C12.5044 18.5544 12.7769 18.4367 13.0865 18.4367C13.4024 18.4429 13.6779 18.5637 13.9132 18.799C14.1485 19.0343 14.2662 19.3068 14.2662 19.6164C14.2662 19.926 14.1454 20.2016 13.9039 20.4431C13.6624 20.6846 13.3869 20.8054 13.0772 20.8054C12.7738 20.7992 12.5044 20.6784 12.2691 20.4431Z" fill="white"/>
<path d="M8.27603 27.1319L9.18632 26.2216C9.87987 26.9152 10.592 27.231 11.3227 27.1691C12.0534 27.1196 12.8306 26.683 13.6542 25.8594L16.255 23.2586C17.0848 22.4288 17.5244 21.6485 17.574 20.9178C17.6297 20.1933 17.3108 19.4843 16.6172 18.7907L17.5275 17.8804C18.1963 18.5492 18.6422 19.2304 18.8651 19.9239C19.0942 20.6113 19.0849 21.3141 18.8372 22.0325C18.5895 22.7508 18.0879 23.4877 17.3325 24.2432L14.6388 26.9369C13.8895 27.6862 13.1557 28.1846 12.4373 28.4323C11.7128 28.6862 11.0069 28.6986 10.3195 28.4695C9.62598 28.2466 8.94482 27.8007 8.27603 27.1319Z" fill="white"/>
<circle cx="138.5" cy="68.5" r="10.5" fill="#FFB800"/>
<path d="M136.292 65.1839C136.371 64.8891 136.535 64.6667 136.783 64.517C137.029 64.375 137.303 64.3445 137.606 64.4256C137.901 64.5046 138.119 64.6671 138.261 64.9131C138.401 65.1668 138.432 65.4411 138.353 65.736C138.274 66.0309 138.111 66.2493 137.865 66.3913C137.619 66.5333 137.345 66.5638 137.042 66.4827C136.74 66.4016 136.517 66.2381 136.375 65.9921C136.241 65.7482 136.213 65.4788 136.292 65.1839ZM140.32 66.2631C140.399 65.9682 140.562 65.7459 140.81 65.5961C141.056 65.4541 141.331 65.4236 141.633 65.5047C141.928 65.5837 142.147 65.7462 142.289 65.9922C142.429 66.2459 142.459 66.5203 142.38 66.8151C142.301 67.11 142.138 67.3285 141.892 67.4705C141.647 67.6125 141.372 67.6429 141.07 67.5619C140.767 67.4808 140.545 67.3172 140.403 67.0713C140.268 66.8274 140.241 66.558 140.32 66.2631Z" fill="white"/>
<path d="M131.98 70.6169C132.204 69.7788 132.541 69.1121 132.99 68.6169C133.431 68.1196 133.998 67.8018 134.692 67.6634C135.377 67.5307 136.188 67.5901 137.127 67.8417L140.503 68.7462C141.449 68.9999 142.186 69.3553 142.712 69.8123C143.236 70.2771 143.565 70.8351 143.698 71.4863C143.839 72.1395 143.798 72.8852 143.573 73.7233L142.432 73.4176C142.665 72.5485 142.594 71.8351 142.22 71.2773C141.845 70.7195 141.138 70.3013 140.098 70.0227L136.839 69.1494C135.807 68.8728 134.989 68.8824 134.386 69.1783C133.775 69.472 133.353 70.0534 133.12 70.9225L131.98 70.6169Z" fill="white"/>
<circle cx="10.5" cy="75.5" r="10.5" fill="#15C771"/>
<path d="M6.60853 74.908C6.45589 74.6437 6.41432 74.3708 6.48382 74.0895C6.55733 73.8151 6.72975 73.5996 7.00109 73.443C7.26547 73.2903 7.53484 73.2508 7.80919 73.3243C8.08756 73.4048 8.30307 73.5772 8.45571 73.8416C8.60835 74.1059 8.64791 74.3753 8.5744 74.6497C8.50089 74.924 8.32846 75.1395 8.05712 75.2962C7.78579 75.4528 7.51294 75.4944 7.23859 75.4209C6.97119 75.3434 6.76117 75.1724 6.60853 74.908ZM10.2194 72.8233C10.0668 72.5589 10.0252 72.2861 10.0947 72.0048C10.1682 71.7304 10.3406 71.5149 10.612 71.3582C10.8763 71.2056 11.1457 71.166 11.4201 71.2396C11.6984 71.32 11.9139 71.4925 12.0666 71.7568C12.2192 72.0212 12.2588 72.2906 12.1853 72.5649C12.1118 72.8393 11.9393 73.0548 11.668 73.2114C11.3967 73.3681 11.1238 73.4097 10.8495 73.3362C10.5821 73.2586 10.372 73.0877 10.2194 72.8233Z" fill="white"/>
<path d="M7.40067 81.7992C6.96685 81.0478 6.73351 80.3383 6.70064 79.6709C6.66082 79.0074 6.8374 78.3813 7.23037 77.7927C7.62041 77.215 8.23634 76.6831 9.07818 76.1971L12.1046 74.4498C12.9534 73.9597 13.7255 73.6902 14.4208 73.6413C15.1201 73.5993 15.7471 73.7614 16.3018 74.1276C16.8634 74.4898 17.3611 75.0466 17.795 75.798L16.7722 76.3885C16.3223 75.6093 15.7678 75.1549 15.1085 75.0253C14.4493 74.8957 13.6535 75.1 12.7213 75.6383L9.79916 77.3253C8.87384 77.8596 8.30248 78.4446 8.08509 79.0803C7.86075 79.72 7.97351 80.4295 8.4234 81.2087L7.40067 81.7992Z" fill="white"/>
<circle cx="172.066" cy="20.0658" r="12.611" transform="rotate(11.8631 172.066 20.0658)" fill="#B632CC"/>
<path d="M165.831 24.0622C165.442 23.9805 165.143 23.7762 164.934 23.4491C164.735 23.1242 164.68 22.7503 164.769 22.3273C164.855 21.9152 165.055 21.6004 165.368 21.383C165.691 21.1678 166.047 21.101 166.436 21.1827C166.825 21.2644 167.119 21.4677 167.318 21.7926C167.517 22.1175 167.572 22.4915 167.483 22.9144C167.394 23.3374 167.193 23.6576 166.88 23.875C166.57 24.0815 166.22 24.144 165.831 24.0622ZM167.013 18.4334C166.624 18.3516 166.325 18.1473 166.116 17.8202C165.917 17.4953 165.862 17.1214 165.951 16.6984C166.038 16.2863 166.237 15.9715 166.55 15.7541C166.873 15.5389 167.229 15.4721 167.618 15.5538C168.007 15.6355 168.301 15.8388 168.5 16.1637C168.699 16.4886 168.754 16.8626 168.665 17.2855C168.576 17.7085 168.375 18.0287 168.063 18.2461C167.752 18.4526 167.402 18.5151 167.013 18.4334Z" fill="white"/>
<path d="M168.782 24.4444L169.145 22.7199L170.588 23.0231L172.255 15.0841L170.812 14.7809L171.174 13.0565L175.55 13.9757C176.983 14.2767 177.998 14.8918 178.593 15.8209C179.189 16.7501 179.325 17.9847 179.002 19.5248L178.55 21.6722C178.227 23.2123 177.606 24.2878 176.686 24.8987C175.767 25.5096 174.591 25.6646 173.158 25.3636L168.782 24.4444ZM172.44 23.3613L173.546 23.5935C174.416 23.7763 175.111 23.6732 175.631 23.2841C176.151 22.8951 176.505 22.2504 176.694 21.3502L177.169 19.0889C177.363 18.1671 177.299 17.4289 176.977 16.8743C176.658 16.309 176.063 15.9349 175.193 15.7521L174.088 15.5199L172.44 23.3613Z" fill="white"/>
<circle cx="82.8009" cy="43.8011" r="11.9609" transform="rotate(18.9659 82.8009 43.8011)" fill="#2F8CFA"/>
<path d="M80.8087 42.534C80.4797 42.421 80.2399 42.2175 80.0891 41.9237C79.9471 41.6329 79.9341 41.3186 80.0501 40.981C80.1632 40.652 80.3651 40.4164 80.656 40.2744C80.9554 40.1353 81.2697 40.1223 81.5987 40.2353C81.9277 40.3484 82.1632 40.5504 82.3053 40.8412C82.4474 41.132 82.4604 41.4463 82.3443 41.7839C82.2283 42.1216 82.0249 42.3615 81.734 42.5035C81.4462 42.6369 81.1377 42.6471 80.8087 42.534ZM77.862 48.4043L78.1477 47.5731L78.6282 47.7382C79.0005 47.8662 79.2506 47.744 79.3785 47.3717L79.5214 46.9561L79.3136 46.8847C78.9932 46.7746 78.7576 46.5871 78.6066 46.3223C78.4585 46.0488 78.4366 45.7605 78.5407 45.4575C78.6508 45.1371 78.8483 44.9146 79.1332 44.7898C79.4211 44.6564 79.7252 44.6447 80.0455 44.7548C80.3745 44.8679 80.6072 45.064 80.7436 45.3432C80.88 45.6224 80.8902 45.9309 80.7741 46.2685L80.2832 47.6971C79.9678 48.6149 79.3555 48.9175 78.4464 48.6051L77.862 48.4043Z" fill="white"/>
<path d="M80.127 50.6492L80.5643 49.3765C81.534 49.7098 82.3479 49.6797 83.0058 49.2862C83.6695 48.9044 84.1992 48.1378 84.5949 46.9862L85.8446 43.3499C86.2433 42.1897 86.2983 41.255 86.0095 40.5459C85.7295 39.8398 85.1046 39.3201 84.1349 38.9869L84.5723 37.7141C85.5073 38.0355 86.2387 38.4708 86.7663 39.0199C87.2969 39.5605 87.6107 40.2249 87.7076 41.0133C87.8045 41.8017 87.6715 42.7241 87.3085 43.7803L86.0141 47.5466C85.6541 48.5942 85.1936 49.3991 84.6325 49.9614C84.0684 50.5323 83.411 50.8679 82.6602 50.968C81.9064 51.0769 81.062 50.9706 80.127 50.6492Z" fill="white"/>
</svg>
